<?xml version="1.0" encoding="UTF-8" standalone="no"?>
<!-- Creator: CorelDRAW 2017 -->

<svg
   xmlns:dc="http://purl.org/dc/elements/1.1/"
   xmlns:cc="http://creativecommons.org/ns#"
   xmlns:rdf="http://www.w3.org/1999/02/22-rdf-syntax-ns#"
   xmlns:svg="http://www.w3.org/2000/svg"
   xmlns="http://www.w3.org/2000/svg"
   xmlns:sodipodi="http://sodipodi.sourceforge.net/DTD/sodipodi-0.dtd"
   xmlns:inkscape="http://www.inkscape.org/namespaces/inkscape"
   xml:space="preserve"
   width="630mm"
   height="630mm"
   version="1.1"
   style="shape-rendering:geometricPrecision; text-rendering:geometricPrecision; image-rendering:optimizeQuality; fill-rule:evenodd; clip-rule:evenodd;zoom: 0.25;"
   viewBox="0 0 63000 63000"
   id="svg2"
   inkscape:version="0.91 r13725"
   sodipodi:docname="logo_text.svg"><metadata
     id="metadata188"><rdf:RDF><cc:Work
         rdf:about=""><dc:format>image/svg+xml</dc:format><dc:type
           rdf:resource="http://purl.org/dc/dcmitype/StillImage" /><dc:title></dc:title></cc:Work></rdf:RDF></metadata><sodipodi:namedview
     pagecolor="#ffffff"
     bordercolor="#666666"
     borderopacity="1"
     objecttolerance="10"
     gridtolerance="10"
     guidetolerance="10"
     inkscape:pageopacity="0"
     inkscape:pageshadow="2"
     inkscape:window-width="1440"
     inkscape:window-height="778"
     id="namedview186"
     showgrid="false"
     inkscape:zoom="0.42288536"
     inkscape:cx="1210.73"
     inkscape:cy="832.37689"
     inkscape:window-x="0"
     inkscape:window-y="1"
     inkscape:window-maximized="1"
     inkscape:current-layer="Слой_x0020_1" /><defs
     id="defs4"><style
       type="text/css"
       id="style6">
   
    .str1 {stroke:#4FAAF0;stroke-width:50;stroke-miterlimit:22.9256}
    .str3 {stroke:#2B2A29;stroke-width:20;stroke-miterlimit:22.9256}
    .str6 {stroke:#92D9FC;stroke-width:20;stroke-miterlimit:22.9256}
    .str10 {stroke:#2B2A29;stroke-width:10;stroke-miterlimit:22.9256}
    .str5 {stroke:#4FAAF0;stroke-width:10;stroke-miterlimit:22.9256}
    .str8 {stroke:#92D9FC;stroke-width:10;stroke-miterlimit:22.9256}
    .str2 {stroke:#2B2A29;stroke-width:7.62;stroke-miterlimit:22.9256}
    .str4 {stroke:#4FAAF0;stroke-width:7.62;stroke-miterlimit:22.9256}
    .str7 {stroke:#92D9FC;stroke-width:7.62;stroke-miterlimit:22.9256}
    .str9 {stroke:#C70808;stroke-width:7.62;stroke-miterlimit:22.9256}
    .str0 {stroke:#F7455A;stroke-width:7.62;stroke-miterlimit:22.9256}
    .fil5 {fill:none}
    .fil4 {fill:#2B2A29}
    .fil3 {fill:#4FAAF0}
    .fil6 {fill:#92D9FC}
    .fil1 {fill:#FEFEFE;fill-rule:nonzero}
    .fil8 {fill:#2B2A29;fill-rule:nonzero}
    .fil2 {fill:#2B2A29;fill-rule:nonzero}
    .fil7 {fill:#C70808;fill-rule:nonzero}
    .fil0 {fill:#F7455A;fill-rule:nonzero}
   
  </style></defs><g
     id="Слой_x0020_1"><metadata
       id="CorelCorpID_0Corel-Layer" /><path
       class="fil0 str0"
       d="M49886.6 25490.92c0,9766.32 -7917.22,17683.35 -17683.11,17683.35 -9766.49,0 -17683.71,-7917.03 -17683.71,-17683.35 0,-9766.25 7917.22,-17683.46 17683.71,-17683.46 9765.89,0 17683.11,7917.21 17683.11,17683.46z"
       id="path10" /><path
       class="fil1"
       d="M32858.99 21664.51c-224.42,-9.03 -438.92,-7.78 -655.74,-9.2 -217.06,1.42 -431.38,0.17 -655.56,9.2 -11172.63,440.35 -12822.67,8615.29 -12822.67,8615.29 0,0 3239.74,9558.64 5943.11,11751.05 1555.55,1262.25 5511.96,3328.17 7535.12,3486.55 2023.1,-158.38 5979.09,-2224.3 7535.06,-3486.55 2703.19,-2192.41 5943.11,-11751.05 5943.11,-11751.05 0,0 -1650.04,-8174.94 -12822.43,-8615.29z"
       id="path12" /><path
       class="fil1"
       d="M29021.17 36350.17c0,0 -1270.44,1775.53 -2837.28,1775.53 -1567.25,0 -2837.46,-1775.53 -2837.46,-1775.53 0,0 1270.21,-1628.83 2837.46,-1628.83 1566.84,0 2837.28,1628.83 2837.28,1628.83z"
       id="path14" /><path
       class="fil0 str0"
       d="M13666.76 32562.07c6697.55,385.71 8857.06,-5345.99 8857.06,-5345.99 0,0 4475.32,3430.14 11324.95,5364.63 8920.3,2519.03 17042.46,-3720.94 17042.46,-3720.94 0,0 -6718.93,-2630.03 -8703.72,-13236.83 -6566.6,-1967.63 -15860.2,1465.05 -21238.73,4042.7 -5378.52,2577.94 -3374.18,11105.23 -7282.02,12896.43z"
       id="path16" /><path
       class="fil1"
       d="M35385.03 36350.17c0,0 1270.44,1775.53 2837.28,1775.53 1567.08,0 2837.46,-1775.53 2837.46,-1775.53 0,0 -1270.38,-1628.83 -2837.46,-1628.83 -1566.84,0 -2837.28,1628.83 -2837.28,1628.83z"
       id="path18" /><path
       class="fil2"
       d="M36483.07 35661.95c0,-134.51 16.99,-265.22 46.09,-391.35 406.44,-456.92 1001.42,-746.66 1667.44,-746.66 703.66,0 1329.47,323.65 1735.49,826.47 18.41,101.2 29.1,205.12 29.1,311.54 0,960.57 -778.31,1739.24 -1739.06,1739.24 -960.15,0 -1739.06,-778.67 -1739.06,-1739.24z"
       id="path20" /><path
       class="fil2"
       d="M41121.35 36484.92c0,0 -861.87,-1340.4 -2625.27,-1676.4 -1763.76,-335.83 -3111.05,1541.48 -3111.05,1541.48 0,0 1097.98,-1918.17 2345.33,-2241.23 399.72,-103.51 896.07,-54.28 896.07,-54.28 0,0 726.53,-299.12 836.75,-231.72 110.81,67.28 -138.07,403.29 -138.07,403.29 0,0 820.18,-330.36 873.15,-214.92 52.61,115.63 -236.71,519.57 -236.71,519.57 0,0 1020.66,-621.18 1098.4,-457.33 77.32,164.02 -451.04,715.42 -451.04,715.42 0,0 1668.86,-787.1 1744.11,-482.27 75.6,304.82 -1161.71,1213.43 -1161.71,1213.43 0,0 2130.83,-840.73 2183.62,-523.96 52.38,317.42 -2276.03,1630.74 -2276.03,1630.74l22.45 -141.82z"
       id="path22" /><path
       class="fil1"
       d="M37694.07 35671.27c0,249.49 -202.39,452.11 -451.51,452.11 -249.48,0 -451.69,-202.62 -451.69,-452.11 0,-249.3 202.21,-451.09 451.69,-451.09 249.12,0 451.51,201.79 451.51,451.09z"
       id="path24" /><path
       class="fil2"
       d="M23284.73 36484.92c0,0 862.11,-1340.4 2625.69,-1676.4 1763.58,-335.83 3110.87,1541.48 3110.87,1541.48 0,0 -1098.4,-1918.17 -2345.56,-2241.23 -399.91,-103.51 -896.02,-54.28 -896.02,-54.28 0,0 -726.35,-299.12 -836.75,-231.72 -110.39,67.28 138.25,403.29 138.25,403.29 0,0 -820.83,-330.36 -873.38,-214.92 -52.8,115.63 236.71,519.57 236.71,519.57 0,0 -1020.91,-621.18 -1098.17,-457.33 -77.56,164.02 451.04,715.42 451.04,715.42 0,0 -1668.86,-787.1 -1744.28,-482.27 -75.42,304.82 1161.64,1213.43 1161.64,1213.43 0,0 -2130.59,-840.73 -2182.96,-523.96 -52.8,317.42 2275.37,1630.74 2275.37,1630.74l-22.45 -141.82z"
       id="path26" /><path
       class="fil2"
       d="M27922.83 35661.95c0,-134.51 -16.98,-265.22 -45.67,-391.35 -406.67,-456.92 -1002.08,-746.66 -1667.61,-746.66 -703.73,0 -1329.54,323.65 -1735.5,826.47 -18.47,101.2 -29.57,205.12 -29.57,311.54 0,960.57 778.49,1739.24 1739.29,1739.24 960.57,0 1739.06,-778.67 1739.06,-1739.24z"
       id="path28" /><path
       class="fil1"
       d="M25645.5 35671.57c0,249.48 -202.39,451.69 -451.45,451.69 -249.54,0 -451.93,-202.21 -451.93,-451.69 0,-249.3 202.39,-451.51 451.93,-451.51 249.06,0 451.45,202.21 451.45,451.51z"
       id="path30" /><path
       class="fil2"
       d="M31515.74 38830.13c192.11,-115.03 418.79,-181.42 662.86,-181.42 243.84,0 470.52,66.39 663.05,181.42 143.71,21.8 279.88,49.41 405.37,83.38 -223.53,-340.22 -617.14,-568.15 -1068.42,-568.15 -451.51,0 -844.94,227.93 -1068.65,568.15 125.25,-33.97 261.84,-61.58 405.79,-83.38z"
       id="path32" /><path
       class="fil2"
       d="M23609.04 39063.99c-37.95,-4.39 -919.12,-274.24 -1657.4,-1048.75 -991.51,-1040.38 -933.73,-1814.54 -988.01,-2040.56l216.46 421.93c1.84,10.04 262.9,810.56 954.28,1413.09 733.65,639.59 1503.17,952.61 1511.55,953.44l-36.88 300.85z"
       id="path34" /><path
       class="fil2"
       d="M40789.68 39063.99c37.95,-4.39 919.3,-274.24 1657.58,-1048.75 991.75,-1040.38 933.55,-1814.54 987.77,-2040.56l-216.4 421.93c-1.9,10.04 -262.49,810.56 -954.04,1413.09 -733.47,639.59 -1503.59,952.61 -1511.79,953.44l36.88 300.85z"
       id="path36" /><path
       class="fil2"
       d="M31378.97 38664.62c-172.45,-495.69 -3629.01,-510.54 -4022.44,-510.54 -2604.31,0 -3960.39,207.61 -4032.43,637.51 0,1357.56 1851.12,3016.39 4011.05,3016.39 2131.89,0 3962.29,-1615.06 4010.51,-2962.11 59.26,-75.66 44.6,-149.42 33.31,-181.25zm-292.29 226.92c0,992.81 -1475.51,2524.67 -3435.6,2524.67 -1960.27,0 -3435.59,-1531.86 -3438.33,-2501.22 67.47,-148.1 1043.77,-368.55 3457.63,-368.55 1873.75,0 3131.84,161.95 3416.3,290.4l0 54.7z"
       id="path38" /><path
       class="fil2"
       d="M33052.94 38845.87c48.17,1347.11 1878.97,2962.11 4010.45,2962.11 2160.34,0 4011.52,-1658.77 4011.52,-3016.33 -72.27,-429.9 -1428.82,-637.57 -4032.48,-637.57 -393.85,0 -3850.4,14.67 -4022.62,510.6 -11.29,32.01 -25.78,105.59 33.13,181.19zm258.93 -8.97c285.35,-128.45 1543.2,-290.4 3416.53,-290.4 2413.62,0 3389.92,220.21 3457.39,368.49 -2.73,969.36 -1477.64,2501.04 -3437.91,2501.04 -1960.51,0 -3436.01,-1531.68 -3436.01,-2524.49l0 -54.64z"
       id="path40" /><path
       class="fil3 str1"
       d="M49680.27 28200.68c103.06,-857.28 191.42,-1760.65 185.16,-2709.85 -13333.71,-50.63 -25101.49,-50.53 -35345.64,0.1 -9.96,1773.58 268.69,3569.68 835.94,5388.3 -401.82,773.63 -964.81,1334.57 -1688.97,1682.84 724.97,48.54 1483.03,10.54 2274.18,-114 1744.16,3838.78 4338.17,6693.42 7782.04,8563.9 -714.41,-999.26 -1321.49,-2015.86 -1821.23,-3049.8 -559.54,-572.74 -885.48,-1206.13 -951.35,-1958.39 -518.45,-1142.66 -1135.14,-2741.73 -1876.51,-4738.99 1374.39,-810.69 2595.8,-2144.38 3449.92,-4048.7 8549.57,5925.87 16148.65,7433.98 22575.01,4683.07 -601.99,1598.85 -1158.61,2991.62 -1670.05,4130.75 6.61,551.62 -298.52,1173.93 -915.2,1914.47 -458.67,963.06 -1068.77,1985.65 -1830.29,3067.76 4278.17,-2331.45 7236.78,-6009.39 8653.56,-11129.06 489.78,-286.55 1007.91,-627.66 1554.39,-1023.31 -545.88,-259.11 -949.53,-478.8 -1210.96,-659.09z"
       id="path42" /><path
       class="fil4 str2"
       d="M41323.17 27050.47c-223.99,-7861.61 -335.99,-11792.41 -335.99,-11792.41 2734.1,4924.79 4915.44,8827.88 6544.01,11709.28 -4138.68,55.42 -6208.02,83.13 -6208.02,83.13z"
       id="path44" /><path
       class="fil4 str3"
       d="M45335.37 23047.5c-1728.24,-2979.08 -3177.63,-5575.56 -4348.19,-7789.43 435.8,-397.67 776.74,-743 1022.82,-1036.03 -1004.59,758.08 -1506.89,1137.12 -1506.89,1137.12 -2182.79,-455.03 -3274.19,-682.55 -3274.19,-682.55 1167.94,-1115.71 1751.92,-1673.57 1751.92,-1673.57 -1167.94,1115.71 -1751.92,1673.57 -1751.92,1673.57l8106.45 8370.89z"
       id="path46" /><path
       class="fil4 str3"
       d="M40769.35 16025.39c-1292.39,1056.22 -3727.1,-1438.04 -3727.1,-1438.04 -66.03,-245.61 -99.04,-368.42 -99.04,-368.42 -456.04,378.22 -684.06,567.33 -684.06,567.33 1282.25,2273.31 2504.47,5324.94 3666.66,9154.9 -2284.48,281.39 -5329.88,327.43 -9136.2,138.11 470.86,-2431.24 1324.72,-4956.55 2561.6,-7575.91 -20.61,-84.89 -18.32,-173.61 6.87,-266.18 -487.06,-68.52 -730.59,-102.79 -730.59,-102.79 -1138.92,-735.66 -1708.39,-1103.49 -1708.39,-1103.49 860.02,663.47 1290.04,995.2 1290.04,995.2 -2444.79,-442.7 -3667.18,-664.05 -3667.18,-664.05 -1193.17,-750.14 -1789.75,-1125.21 -1789.75,-1125.21 891.13,678.36 1336.7,1017.53 1336.7,1017.53 17.19,99.95 25.79,149.92 25.79,149.92 -3241.12,7746 -4861.67,11619 -4861.67,11619 5148.13,240.74 7722.19,361.11 7722.19,361.11 -7.89,-447.15 -17.69,-1002.24 -29.39,-1665.26 6043.98,-122.1 9065.98,-183.14 9065.98,-183.14 5.54,1187.53 8.31,1781.3 8.31,1781.3 3302.39,95.95 4953.59,143.93 4953.59,143.93 255.98,-996.48 376.53,-2467.73 361.66,-4413.73l-4566.02 -7022.11z"
       id="path48" /><path
       class="fil4 str3"
       d="M37228.92 14676.61c1151.9,-1100.38 1727.85,-1650.57 1727.85,-1650.57 -449.53,344.6 -1087.7,865.04 -1914.52,1561.31 170.53,702.63 255.79,1053.95 255.79,1053.95 696.5,6.88 1044.75,10.33 1044.75,10.33 -742.58,-650.02 -1113.87,-975.02 -1113.87,-975.02z"
       id="path50" /><path
       class="fil3 str4"
       d="M27274.68 28216.15c-3370.97,104.95 -4674.82,-773.1 -3911.54,-2634.17 3769.59,1009.19 6230.54,1373.36 7382.86,1092.51 -2314.21,1027.77 -3471.32,1541.66 -3471.32,1541.66z"
       id="path52" /><path
       class="fil3 str4"
       d="M29681.17 27016.74c-3575.36,39.66 -5697.65,-363.46 -6366.87,-1209.36 2950.93,-244.76 5073.22,158.36 6366.87,1209.36z"
       id="path54" /><g
       id="_2054090468704"><path
         class="fil3 str4"
         d="M28057.88 26114.87c1012.09,582.97 1811.82,605.47 2956.64,526.24 145.35,-10.06 70.09,-11.01 218.36,2.92 -502.42,163.59 -1258.14,217.67 -1775.35,140.13 -625.77,-93.82 -947.3,-252.98 -1399.65,-669.29z"
         id="path57" /></g><path
       class="fil5"
       d="M28057.88 26114.87c743.41,671.47 2032.96,702.59 2961.53,557.59 85.56,-13.36 124,-21.37 213.47,-28.43"
       id="path59" /><path
       class="fil3 str5"
       d="M32482.51 27809.45c69.23,-719.52 103.84,-1079.28 103.84,-1079.28 2320.4,896.87 4063.12,1002.7 5228.17,317.5 6203.7,46.02 8342.75,77.51 6417.15,94.47 1263.94,273.83 2256.98,339.35 2979.12,196.56 1157.86,160.48 2216.45,643.12 2241.55,735.62 -4434.19,1458.32 -7058.54,1880.57 -6938.81,1979.02 -6618.12,-1411.11 -9927.18,-2116.67 -9927.18,-2116.67l-103.84 -127.22z"
       id="path61" /><path
       class="fil6 str6"
       d="M30563.19 26703.71c493.89,-256.26 1030.12,-340.93 1608.67,-254 1007.14,161.88 1790.3,-162.68 2349.5,-973.67 595.49,1209.72 1628.29,1855.9 3149.47,1930.29 -1060.78,571.29 -2114.75,616.56 -3212.97,144.05 -1623.31,-490.49 -2921.54,-772.71 -3894.67,-846.67z"
       id="path63" /><path
       class="fil6 str6"
       d="M25335.02 28756.88c254,-762 3640.67,-1524 3640.67,-1524 1777.41,-169.78 3802.35,126.55 6074.83,889 1728.03,402.28 2948.65,-190.38 3661.84,-1778 1287.77,2333.17 3319.77,3222.17 6096,2667 -2059.2,894.29 -4091.2,668.52 -6096,-677.33 -1182.23,1147.36 -2812.06,1274.36 -4889.5,381 -2355.07,-683.36 -7357.47,-415.25 -8487.84,42.33z"
       id="path65" /><path
       class="fil6 str7"
       d="M42353.03 27052.95c-1675.02,549.55 -2754.52,389.49 -3238.51,-480.17 618.99,120.45 1084.67,-11.49 1397.01,-395.81 187.63,558.57 801.46,850.56 1841.5,875.98z"
       id="path67" /><path
       class="fil6 str7"
       d="M47210.79 27338.7c-1108.6,423.11 -2223.38,289.06 -3344.34,-402.17 516.62,114.1 1095.17,-23.48 1735.67,-412.75 190.89,469.42 727.11,741.06 1608.67,814.92z"
       id="path69" /><path
       class="fil6 str7"
       d="M43919.38 28587.53c-2366.14,-358.7 -1417.18,346.87 -4053.44,-1079.51 1463.43,253.44 2564.09,-4.08 3302.02,-772.57 699.2,829.43 1930.37,1192.79 3693.58,1090.09 1144.02,32.3 2198.83,501.49 3164.44,1407.58 -1609.25,-962.03 -5013.56,-1163.12 -6106.6,-645.59z"
       id="path71" /><path
       class="fil6 str7"
       d="M45306.02 30073.87c-1445.03,642.12 -2722.08,687.98 -3831.17,137.59 1500.62,105.13 2767.1,-138.28 3799.42,-730.25 1414.12,-898.52 2701.76,-930.27 3862.92,-95.25 -1390.6,-152.23 -2667.66,77.08 -3831.17,687.91z"
       id="path73" /><path
       class="fil6 str7"
       d="M14725.24 28332.18c-25.35,-173.62 -40.64,-263.49 -40.64,-263.49 2124.2,537.77 3666.1,383.95 4427.62,-471.32 896.77,735.94 1708.16,1124 2434.17,1164.17 -666.15,348.91 -983.65,535.88 -952.5,560.92 -617.55,-99.77 -924.47,-163.28 -920.75,-190.51 -1178.82,125.6 -2902.32,-137.95 -4947.9,-799.77z"
       id="path75" /><path
       class="fil6 str7"
       d="M14523.8 25110.16c-52.22,392.59 -27.81,806.7 14.7,1201.68 1571.68,502.99 2808.12,423.27 3811.72,-206.72 -1444.26,136.41 -2548.45,-385.7 -3312.59,-1566.34 -330.64,368.59 -463.47,580.14 -513.83,571.38z"
       id="path77" /><path
       class="fil6 str7"
       d="M15329.27 30875.26c1251.88,451.39 1519.7,430.29 3989.04,-1256.58 -2376.81,383.91 -2060.63,676.27 -4437.44,-465.76 199.59,910.28 374.96,1484.55 448.4,1722.34z"
       id="path79" /><path
       class="fil6 str7"
       d="M41088.54 31162.76c-3747.49,1789.68 -8117.99,1679.15 -12074.64,-246.34 654.41,-401.23 3465.63,1063.97 7269.8,817.84 1518.54,15.68 3317.71,-174.82 4762.5,-1206.5 746.25,542.32 1832.81,725.77 3259.67,550.34 -1125.71,648.02 -2198.16,676.24 -3217.33,84.66z"
       id="path81" /><path
       class="fil6 str8"
       d="M28943.9 30916.42c3435.57,1133.8 5858.83,1406.42 7269.8,817.84 -2164.58,-190.4 -3830.27,-262.12 -5228.1,-1418.19 -1010.81,422.67 -1691.38,622.78 -2041.7,600.35z"
       id="path83" /><path
       class="fil6"
       d="M48962.53 31182.04c-82.18,234.19 -188.11,526.68 -316.6,854.56 -935.71,-660.7 -2351.14,-145.02 -3874.01,723.48 1104.79,-1274.13 2630.16,-2085.25 4190.61,-1578.04z"
       id="path85" /><path
       class="fil6 str8"
       d="M13576.8 32579.27c417.28,-190.89 705.97,-423.17 705.97,-423.17 145.82,163.73 339.81,337.44 502.63,433.78 -251.82,16.93 -729.64,42.92 -1208.6,-10.61z"
       id="path87" /><path
       class="fil6 str8"
       d="M16231.3 33114c319.08,626.42 325.89,625 496.54,940.22 1292.99,-368.15 2487.76,-406.92 3011.94,-1022.96 -830.77,310.3 -2010.85,331.71 -3508.48,82.74z"
       id="path89" /><path
       class="fil6"
       d="M18766.55 37019.26c-456.17,-533.23 -494.26,-593.21 -985.57,-1282.54 1125.91,-81.41 2048.19,-336.82 2744.42,-772.04 247.39,578.9 197.59,459.86 237.88,554.38 -581.77,839.52 -1450.95,1287.45 -1996.73,1500.2z"
       id="path91" /><path
       class="fil6 str8"
       d="M23781.19 41064.89c-1112.73,-584.25 -2012.96,-1245.05 -2652.86,-1747.62 479.81,-31.36 869.97,-335.79 1059.35,-844.48 1012.94,1683.09 1593.51,2592.1 1593.51,2592.1z"
       id="path93" /><path
       class="fil6 str8"
       d="M19505.97 31008.88c-1107.16,360.53 -1931.24,440.27 -2472.24,239.22 1182.14,-247.45 2113.47,-783.67 2794,-1608.67 352.53,222.49 668.47,319.79 947.82,291.89 -617.99,589.36 -1041.19,948.55 -1269.58,1077.56z"
       id="path95" /><path
       class="fil6"
       d="M43825.52 35056.47c308.16,-744.66 328.43,-787.39 328.43,-787.39 1381.05,-46.18 2453.54,146.05 3134.31,517.45 -322.4,526.33 -599.42,940.29 -787.97,1190.45 -165.96,-491.89 -853.21,-1325.95 -2674.77,-920.51z"
       id="path97" /><path
       class="fil6"
       d="M40589.55 41091.81c835.71,-1235.67 1475.4,-2268.43 1789.79,-2933.64 880.02,7.51 1355.68,296.62 1358.2,803.79 -1165.56,1022.5 -2339.11,1721.19 -3147.99,2129.85z"
       id="path99" /><path
       class="fil3 str5"
       d="M46090.62 28529.33c-2779.19,682.56 -4854.08,342.13 -6224.68,-1021.31 1114.41,396 2152.14,348.38 3113.18,-142.86 887.6,567.06 2289.89,781.5 4206.87,643.31 737.52,68.23 1684.19,476.45 2839.99,1224.65 -1717.02,-547.52 -3028.81,-782.12 -3935.36,-703.79z"
       id="path101" /><path
       class="fil3 str5"
       d="M39114.52 26572.78c376.07,976 1455.57,1136.06 3238.51,480.17 -863,111.92 -1515.07,-30.96 -1956.21,-428.64 -501.02,175.74 -928.45,158.57 -1282.3,-51.53z"
       id="path103" /><path
       class="fil3 str5"
       d="M43866.45 26936.53c1209.13,817.74 2323.91,951.8 3344.34,402.17 -606.41,125.65 -1198.51,-17.23 -1776.3,-428.64 -520.73,174.62 -1043.41,183.44 -1568.04,26.47z"
       id="path105" /><path
       class="fil3 str5"
       d="M37696.36 27402.21c-1207.15,198.14 -2261.39,-103.49 -3162.72,-904.89 -615.26,209.39 -1025.32,315.15 -1230.18,317.27 10.19,117.95 -27.99,243.78 -114.53,377.5 608.96,267.79 1078.14,506.53 1407.56,716.21 1463.21,266.86 2459.89,117.25 2990.02,-448.83l109.85 -57.26z"
       id="path107" /><path
       class="fil3 str5"
       d="M14546.12 26517.62c1750.24,890.74 2972.11,780.69 3665.62,-330.17 -997.26,258.31 -2075.96,-61.74 -3236.11,-960.14 -339.85,306.64 -479.98,483.91 -479.98,483.91 18.14,600.69 63.05,962.34 50.47,806.4z"
       id="path109" /><g
       id="g4123" /><path
       class="fil4 str10"
       d="M39308.32 24970.7c-157.55,-607.65 -236.32,-911.48 -236.32,-911.48 -47.57,-277.02 -205.1,-415.8 -472.61,-416.35 4.04,-274.62 -37.22,-447.16 -123.79,-517.63 -64.3,-412.09 -94.31,-588.38 -90.01,-528.86 -15.06,362.65 -37.58,531.43 -67.52,506.36 -115.42,107.47 -149.19,306.28 -101.26,596.4 -205.63,-39.58 -355.66,91.69 -450.11,393.84 -217.5,10.7 -405.04,14.44 -562.63,11.25 -149.43,-126.63 -246.97,-122.89 -292.59,11.25 -64.15,-86.55 -139.15,-90.29 -225.04,-11.25 -153.6,-149.83 -292.38,-198.59 -416.35,-146.28 -223.15,-265.79 -361.95,-224.53 -416.37,123.79 -124.63,46.76 -177.16,50.52 -157.53,11.24 92.89,-590.42 40.36,-897.99 -157.53,-922.72 12.1,-248.91 -14.14,-368.95 -78.76,-360.08 -34.01,-209.78 -49.02,-322.29 -45.02,-337.58 22.5,-116.28 0,0 -67.52,348.83 18.76,-123.79 0,0 -56.26,371.33 -165.66,-65.9 -225.67,207.92 -180.05,821.46 -551.47,72.66 -904.04,68.9 -1057.74,-11.27 -58.1,-230.73 -118.11,-347 -180.05,-348.83 47.35,-765.43 -5.17,-1200.53 -157.53,-1305.31 -4.56,-299.47 -38.32,-487.01 -101.29,-562.65 -102.92,-1837.8 -151.68,-2768.01 -146.28,-2790.66 -38.7,1955.36 -57.46,2870.58 -56.27,2745.67 -98.8,142.56 -128.8,352.61 -90.01,630.14 -152.6,113.68 -201.36,556.29 -146.28,1327.83 -112.62,46.91 -153.88,185.7 -123.79,416.34 -202.52,32.96 -345.06,104.22 -427.61,213.8 -85.55,-100.62 -201.83,-153.13 -348.83,-157.53 -272.26,-273.38 -512.32,-284.63 -720.16,-33.77 -199.13,-171.31 -412.95,-208.82 -641.42,-112.51 216.78,751.16 269.28,1066.24 157.53,945.23 5607.18,-194.39 8352.85,-194.39 8237,0z"
       id="path115" /><path
       class="fil6 str7"
       d="M23387.73 26139.82c-2366.14,-358.7 -1417.5,757.78 -4053.76,-668.6 1463.43,253.44 2564.41,-414.99 3302.34,-1183.48 699.2,829.43 1930.37,1192.79 3693.58,1090.09 1144.02,32.3 2198.83,501.49 3164.44,1407.58 -1609.25,-962.03 -5013.56,-1163.12 -6106.6,-645.59z"
       id="path117" /><path
       class="fil3"
       d="M19333.97 25471.22c1037.6,1282.21 4424.39,1720.27 10160.36,1314.19 -3146.85,-367.29 -5428.38,-860.52 -6844.59,-1479.67 -1469.43,445.31 -2574.69,500.47 -3315.77,165.48z"
       id="path119" /><g
       id="_2054090458592"><path
         class="fil3"
         d="M22649.74 25305.74c1136.55,572.1 2139.07,404.26 3334.63,609.47l390.7 89.03c-769.19,-17.73 -1732.04,-16.76 -2484.17,-160.58 -590.18,-112.85 -756.65,-155.8 -1241.16,-537.92z"
         id="path122" /></g><path
       class="fil5"
       d="M22649.74 25305.74c720.33,650.6 2806.37,539.08 3725.33,698.5"
       id="path124" /><g
       id="_2054090456800"><path
         class="fil3"
         d="M29528.91 27020.24c1366.64,-687.78 1918.58,-292.31 3332.83,-162.48 430.24,39.49 851.93,39.81 1302.67,77.82 -436.35,31.72 -873.32,71.4 -1311.43,53.33 -1609.13,-66.4 -1643.64,-473.86 -3324.07,31.33z"
         id="path127" /></g><path
       class="fil5"
       d="M29528.91 27020.24c1140.06,-515.63 1674.59,-287.63 2794,-149.97 878.45,108.02 960.58,46.03 1841.5,65.31"
       id="path129" /><g
       id="_2054090456608"><path
         class="fil3"
         d="M31031.74 26639.24c767.46,-85.19 1292.87,-122.4 2055.2,18.85 515.79,95.56 733.14,103.35 1246.8,150.49 -631.26,73.63 -640.01,78.26 -1270.38,1.62 -719.55,-87.49 -1331.74,-99.54 -2031.62,-170.96z"
         id="path132" /></g><path
       class="fil5"
       d="M31031.74 26639.24c1252.99,0 1176.63,-51.9 2469.24,163.9 128.58,21.46 664,5.44 832.76,5.44"
       id="path134" /><g
       id="_2054090455072"><path
         class="fil3"
         d="M30417.91 26787.41c611.15,-229.31 1335.2,-315.71 1979.64,-168.46 455.77,104.15 1819.42,237.86 2169.03,-127.87 -79.46,459.88 -1832.24,392.5 -2233.65,284.57 -585.62,-157.47 -1329.07,-80.3 -1915.02,11.76z"
         id="path137" /></g><path
       class="fil5"
       d="M30417.91 26787.41c203.09,-126.65 1573.72,-244.18 1947.33,-90.11 319.74,131.85 2067.89,179.11 2201.34,-206.22"
       id="path139" /><g
       id="_2054090453792"><path
         class="fil3"
         d="M32153.58 26660.41c1033.32,111.65 1352.22,30.33 2349.5,-127 -790.81,385.9 -1527.01,472.89 -2349.5,127z"
         id="path142" /></g><path
       class="fil5"
       d="M32153.58 26660.41c770.44,248.3 1632.5,121.19 2349.5,-127"
       id="path144" /><path
       class="fil5"
       d="M29634.74 26596.91c109.22,260.91 53.56,461.3 -166.96,601.17 1744.14,-15.94 3312.52,200.38 4705.14,648.95"
       id="path146" /><path
       class="fil3"
       d="M28960.45 27208.37c2073.47,-60.52 3767.07,131.91 5080.78,577.31 -46.4,-634.71 117.71,-1035.79 461.85,-1252.27 -707.65,158.29 -1341.51,177.48 -1871.1,106.59 -1173.6,-129.08 -2130.43,-49.47 -2870.47,238.81 -401.04,49.86 -668.06,159.71 -801.06,329.56z"
       id="path148" /><g
       id="_2054090453216"><path
         class="fil3"
         d="M30746 26744.49c945.42,-181.33 704.9,-189.63 1727.04,-85.42 440.87,44.94 1689.61,188.83 2019.47,-147.41 -76.93,467.19 -1860.19,343.88 -2208.33,283.84 -854.08,-147.28 -798.76,-25.8 -1538.18,-51.01z"
         id="path151" /></g><path
       class="fil5"
       d="M30746 26744.49c450.52,14.54 739.58,-214.59 1556.05,-26.61 254.09,58.5 2052.01,193.53 2190.46,-206.22"
       id="path153" /><g
       id="_2054090452768"><path
         class="fil3"
         d="M26216.34 27940.99c1102.4,-683.8 2992.05,-1157.15 4275.66,-910.17 -1832.42,83.25 -2574.63,348.27 -4275.66,910.17z"
         id="path156" /></g><path
       class="fil5"
       d="M26216.34 27940.99c1167.67,-570.46 2970.58,-1044.82 4275.66,-910.17"
       id="path158" /><g
       id="_2054090452448"><path
         class="fil3"
         d="M27528.67 27454.16c942.56,-348.25 2256.97,-661.27 3238.5,-359.84 -1057.02,-49.85 -2177.16,236.16 -3238.5,359.84z"
         id="path161" /></g><path
       class="fil5"
       d="M27528.67 27454.16c727.44,-185.46 2605.17,-565.5 3238.5,-359.84"
       id="path163" /><g
       id="_2054090449856"><path
         class="fil3"
         d="M26174 27940.99c1019.16,-463.6 2981.18,-944.76 4107.7,-885.41l421.97 59.91c-1410.49,51.43 -3151.71,475.95 -4529.67,825.5z"
         id="path166" /></g><path
       class="fil5"
       d="M26174 27940.99c826.59,-337.76 3622.62,-978.46 4529.67,-825.5"
       id="path168" /><path
       class="fil6 str8"
       d="M21340.69 26256.8c376.07,976 1455.57,1136.06 3238.51,480.17 -863,111.92 -1515.07,-30.96 -1956.21,-428.64 -501.02,175.74 -928.45,158.57 -1282.3,-51.53z"
       id="path170" /><path
       class="fil3"
       d="M24579.2 26736.97c-2412.11,786.32 -3508.3,614.09 -3288.57,-516.7 262.84,436.31 662.96,537.17 1200.38,302.58 469.79,356.22 1165.85,427.59 2088.19,214.12z"
       id="path172" /><g
       id="_2054090450688"><path
         class="fil3"
         d="M22723.84 27073.19c1229.5,116.25 1510.27,-224.85 2645.84,-444.5 -372.8,173.97 -294.73,143.72 -669.04,294.54 -768.36,309.6 -1174.91,438.2 -1976.8,149.96z"
         id="path175" /></g><path
       class="fil5"
       d="M22723.84 27073.19c949.13,295.87 1672.25,-153.18 2645.84,-444.5"
       id="path177" /><g
       id="_2054090481376"><path
         class="fil3"
         d="M23104.84 27073.19c789.83,-187.88 1600.55,-512.64 2370.67,-635 -718.81,359.19 -1554.65,698.25 -2370.67,635z"
         id="path180" /></g><path
       class="fil5"
       d="M23104.84 27073.19c622.2,0 1756.24,-447.79 2370.67,-635"
       id="path182" /><g
       id="g4127"
       transform="translate(0,3443.1113)"><path
         class="fil7 str9"
         d="m 37418.318,47255.934 c 0,0 421.1,898.1 345.68,1037.15 -188.46,347.63 -851.83,-5.57 -814.53,-123.22 l 468.85,-913.93 m -19602.38,-663.39 c 92.4,1.98 175.04,24.34 239.85,79.9 345.73,296.32 40.59,1325.13 -311.14,1560.09 -422.84,282.47 -1292.13,84.34 -1292.13,84.34 l 345.74,-1333.28 c 40.11,0 617.33,-399.74 1017.68,-391.05 m 8737.01,-1.15 c 54.4,-1.08 111.19,7.89 168.57,28.09 l -356.48,1280.59 c -174.66,244.48 -641.52,349.71 -686.09,-6.77 -57.99,-464.16 348.32,-1291.42 874,-1301.91 m 3113.68,-39.27 c 200.02,-5.54 278.98,-34.32 377.06,40.42 l -317.64,1406.66 c -69.87,212.32 -1016.61,384.11 -1121.46,-101.57 -98.23,-455.53 169.46,-811.67 364.08,-1055.95 157.19,-197.33 440.82,-282.32 697.96,-289.56 m 5203.54,-185.29 c 159.44,-134.02 275.43,-105.89 300.35,-13.89 24.92,92.09 -601.63,916.52 -601.63,916.52 3.37,-310.05 141.84,-768.6 301.28,-902.63 m -10568.65,-3107.01 c 7.39,-0.98 14.11,-0.55 21.58,0 333.82,27.19 -664.46,3248.42 -664.46,3248.42 -103.53,-34.32 175.35,-3182.62 642.88,-3248.42 m -59.47,-1129.25 c -1525.77,79.71 -1315.92,4762.29 -1315.92,4762.29 0,0 -64.77,517.01 -283.05,814.65 -218.26,297.56 -583.94,510.39 -676.3,417 l 568.28,-2502.14 -838.41,0 c 0,0 -446.67,2504.66 -935.6,2597.24 -488.92,92.5 -350.11,-418.67 -350.11,-942.56 0,-771.44 105.05,-1617.27 -453.66,-1687.1 -558.76,-69.92 -1153.85,883.74 -1153.85,883.74 0,0 70.45,-559.03 -488.35,-838.4 -558.75,-279.43 -1955.49,419.24 -1955.49,419.24 130.12,-589.94 -106.08,-1333.98 -769.19,-1326.75 -585.61,35.32 -998.2,443 -1395.85,767.06 l 559.64,559.69 c 0,0 556.78,-628.02 836.21,-278.8 279.34,349.25 -1075.5,6833.19 -1075.5,6833.19 l 838.41,0 796.7,-3341.4 c 0,0 1815.82,140.33 2165.07,-278.72 349.25,-419.17 628.79,-1536.3 628.79,-1536.3 0,0 768.85,-839.72 698.97,-560.3 -69.88,279.42 -140.68,2165 208.54,2234.91 349.21,69.84 1047.99,0 1047.99,0 l -847.04,2716.07 -968.02,77.76 -140.44,700.1 1607.6,0 1127.93,-3511.18 c 0,0 506.25,-72.65 792.98,-229.12 286.72,-156.5 510.66,-433.52 717.38,-639.58 45.51,349.91 59.9,625.07 488.31,847.03 555.28,287.63 1326.13,80.28 1657.31,-172.82 803.24,523.78 1467.12,-103.73 1467.12,-103.73 0,0 767.18,698.5 1186.27,0 1152.52,768.22 1780.5,-32.43 1780.5,-32.43 0,0 54.05,377.31 1024.19,442.92 970.07,65.62 1432.54,-875.08 1432.54,-875.08 189.73,240.89 286.26,753.52 754.18,803.86 467.75,50.18 935.28,-249.43 1289.94,-620.16 264.11,497.59 533.31,536.44 870.75,656.88 337.54,120.25 988.81,-238.52 1264.08,-427.92 351.04,631.77 1384.17,584.96 1687.53,114.57 4.3,33.04 81.83,103.65 490.51,239.84 161.92,-118.16 207.96,-313.24 401.87,-576.91 -174.61,-69.95 -527.23,-244.13 -527.23,-244.13 -103.91,-581.74 -416.71,-1121.46 -749.8,-1657.36 l 350.11,-767.05 -697.97,-209.55 c -430.38,933.7 -792.84,1761.58 -1082.5,2311.94 -289.75,550.37 -1361.41,571.72 -1570.88,95.1 1403.31,-1050.3 1558.69,-2667.03 347.85,-2512.59 -1120.6,142.92 -1019.31,2111.5 -1019.31,2111.5 0,0 -411.97,400.36 -970.69,470.24 -558.8,69.79 177.16,-2489.11 177.16,-2489.11 l -767.07,0 c 0,0 -461.76,1822.59 -1015.57,2419.96 -499.09,538.29 -714.67,217.17 -851.33,153.45 -141.48,-66.19 1573.29,-6085.52 1573.29,-6085.52 l -979.54,8.78 -1023.74,3552.97 c -558.84,-11.34 -1187.12,-91.73 -1745.87,406.24 -750.94,705.36 -460.72,2285.95 -1328.93,2001.58 -279.38,69.79 473.26,-2126.93 473.26,-2126.93 -50.99,-357.73 -1156.74,-520.49 -1706.99,-181.54 -1091.56,672.35 -991.93,2006.76 -1197.07,2493.48 -483.77,223.7 -617.76,75.83 -808.92,-414.83 803.9,-940.24 2058.8,-5673.43 452.4,-5743.27 -25.11,-1.12 -49.29,-1.24 -73.47,0 z"
         id="path111"
         inkscape:connector-curvature="0"
         style="clip-rule:evenodd;fill:#c70808;fill-rule:nonzero;stroke:#c70808;stroke-width:7.61999989;stroke-miterlimit:22.92560005;image-rendering:optimizeQuality;shape-rendering:geometricPrecision;text-rendering:geometricPrecision" /><path
         style="fill:#c70808;fill-rule:nonzero;stroke:#c70808;stroke-width:7.61999989;stroke-miterlimit:22.92560005"
         inkscape:connector-curvature="0"
         id="path113"
         d="m 33240.246,43955.437 c 754.41,-25.69 710.11,1151.79 -49.68,1072.25 -543.98,-56.96 -704.69,-1046.6 49.68,-1072.25 z"
         class="fil7 str9" /><path
         style="fill:#2b2a29;fill-rule:nonzero"
         inkscape:connector-curvature="0"
         id="path184"
         d="m 39844.569,48958.205 c 48.191,-91.152 88.625,-169.983 121.333,-236.442 32.693,-66.476 71.415,-143.384 116.153,-230.758 l 1399.088,0 c 92.928,0 173.812,-17.088 242.638,-51.278 68.84,-34.175 127.348,-77.862 175.539,-131.045 48.176,-53.168 86.899,-110.146 116.152,-170.92 29.254,-60.775 50.768,-117.754 64.538,-170.922 10.317,-56.978 13.771,-117.752 10.317,-182.322 -3.438,-64.57 -18.922,-123.454 -46.464,-176.621 -27.527,-53.184 -70.552,-97.808 -129.061,-133.888 -58.507,-36.097 -137.665,-54.137 -237.485,-54.137 l -712.445,0 c -154.875,0 -287.389,-19.946 -397.527,-59.821 -110.138,-39.876 -198.764,-93.059 -265.877,-159.535 -67.114,-66.458 -116.153,-144.336 -147.134,-233.599 -30.981,-89.248 -46.464,-185.166 -46.464,-287.722 0,-83.563 10.331,-174.715 30.981,-273.476 51.616,-250.687 154.875,-466.247 309.751,-646.665 154.89,-180.433 333.853,-328.565 536.92,-444.412 203.066,-115.848 415.601,-201.317 637.589,-256.389 221.988,-55.073 425.919,-82.61 611.775,-82.61 158.328,0 311.477,16.135 459.474,48.42 147.997,32.301 275.346,82.625 382.045,150.99 106.699,68.365 186.72,155.74 240.062,262.09 53.342,106.351 64.537,233.6 33.556,381.733 -37.858,170.92 -134.226,368.44 -289.116,592.545 l -831.187,0 c 178.978,-212.718 285.677,-393.135 320.097,-541.267 30.967,-140.542 9.453,-245.94 -64.538,-316.21 -74.006,-70.271 -179.841,-105.415 -317.506,-105.415 -99.807,0 -213.384,23.741 -340.733,71.224 -127.347,47.482 -252.12,113.005 -374.302,196.568 -122.183,83.562 -229.73,182.322 -322.659,296.264 -92.927,113.957 -154.875,239.301 -185.856,376.047 -37.859,197.504 -6.878,334.25 92.929,410.223 99.806,75.955 278.784,113.941 536.919,113.941 l 351.064,0 c 137.666,0 265.013,16.151 382.03,48.435 117.016,32.285 218.549,80.704 304.6,145.274 86.035,64.586 153.162,144.336 201.339,239.301 48.191,94.966 72.279,205.112 72.279,330.455 0,53.183 -8.605,127.249 -25.815,222.198 0,7.607 -1.712,16.151 -5.166,25.648 -3.439,9.495 -5.152,18.04 -5.152,25.63 -37.858,155.74 -101.533,295.327 -191.022,418.782 -89.489,123.438 -196.187,228.837 -320.083,316.211 -123.908,87.357 -259.862,154.77 -407.858,202.251 -147.998,47.483 -301.146,71.224 -459.475,71.224 l -1626.243,0 m 7310.343,-2506.908 c -55.069,262.089 -150.573,488.082 -286.527,678.013 -135.952,189.913 -295.993,344.699 -480.123,464.342 -184.144,119.642 -385.484,207.953 -604.033,264.932 -218.564,56.979 -439.689,85.468 -663.405,85.468 l -237.486,0 c -30.981,159.519 -65.386,327.597 -103.26,504.218 -37.859,176.638 -72.265,346.605 -103.246,509.935 l -764.074,0 211.672,-1014.153 -418.177,0 c 48.177,-98.759 92.065,-184.228 131.651,-256.389 39.571,-72.176 83.46,-157.628 131.636,-256.388 l 258.135,0 c 37.859,-182.323 78.309,-369.394 121.334,-561.214 43.01,-191.818 83.46,-380.779 121.319,-566.898 144.558,-41.781 281.36,-81.672 410.435,-119.642 129.06,-37.986 262.422,-75.972 400.103,-113.957 l -294.268,1361.711 320.082,0 c 127.349,0 248.667,-25.647 363.971,-76.925 115.29,-51.278 217.687,-118.69 307.176,-202.252 89.489,-83.563 165.207,-179.481 227.154,-287.737 61.948,-108.241 104.973,-219.34 129.061,-333.298 l 0,5.701 c 6.893,-30.395 12.058,-63.632 15.497,-99.712 3.439,-36.081 5.152,-71.224 5.152,-105.399 0,-155.739 -36.996,-289.627 -110.987,-401.678 -74.006,-112.052 -166.07,-203.206 -276.209,-273.477 -110.138,-70.27 -228.881,-121.547 -356.214,-153.832 -127.349,-32.286 -244.38,-48.436 -351.064,-48.436 -182.418,0 -339.883,24.694 -472.383,74.066 -132.514,49.388 -244.364,113.005 -335.58,190.866 -91.202,77.878 -162.617,162.377 -214.247,253.546 -51.63,91.154 -86.05,178.528 -103.259,262.091 -6.879,49.371 -12.908,97.807 -18.059,145.274 -5.167,47.482 -7.757,97.807 -7.757,150.99 0,37.986 0.863,75.972 2.59,113.958 1.712,37.97 4.303,74.066 7.742,108.241 l -764.074,0 c -6.879,-30.38 -10.332,-59.822 -10.332,-88.312 0,-28.489 0,-61.71 0,-99.696 0,-37.986 1.726,-79.768 5.165,-125.344 3.44,-45.593 13.771,-94.965 30.981,-148.148 48.191,-239.286 144.559,-442.507 289.103,-609.633 144.557,-167.125 314.931,-302.918 511.104,-407.363 196.188,-104.461 405.27,-180.434 627.272,-227.899 221.989,-47.483 436.236,-71.224 642.741,-71.224 199.628,0 402.694,19.946 609.2,59.821 206.505,39.876 394.088,105.398 562.734,196.568 168.647,91.153 306.312,211.748 413.01,361.787 106.7,150.038 160.042,333.313 160.042,549.811 0,83.562 -13.771,186.118 -41.298,307.665 m 3014.984,1959.942 c -89.474,106.367 -166.056,194.678 -229.73,264.949 -63.674,70.255 -128.212,126.281 -193.598,168.062 -65.401,41.781 -134.227,71.223 -206.505,88.327 -72.279,17.087 -160.042,25.63 -263.302,25.63 l -1270.012,0 c -106.7,0 -205.643,-19.946 -296.858,-59.821 -91.202,-39.891 -169.511,-131.998 -234.897,-276.335 -13.77,37.986 -33.557,92.107 -59.371,162.377 -25.816,70.271 -49.04,128.203 -69.703,173.779 l -454.31,0 c 65.401,-322.865 130.787,-640.964 196.188,-954.332 65.387,-313.367 130.788,-624.829 196.174,-934.402 65.401,-309.556 129.924,-621.018 193.598,-934.386 63.673,-313.367 129.923,-631.467 198.764,-954.331 127.347,-30.396 250.394,-59.821 369.137,-88.311 118.743,-28.489 238.335,-57.932 358.805,-88.311 l -443.992,2142.264 c 137.665,-144.337 293.404,-258.295 467.217,-341.858 173.811,-83.562 334.716,-125.343 482.714,-125.343 82.596,0 160.041,10.449 232.32,31.332 72.279,20.899 135.09,56.026 188.432,105.414 53.357,49.372 96.367,112.052 129.075,188.008 32.693,75.972 49.04,167.142 49.04,273.492 0,37.987 -3.439,81.657 -10.333,131.045 -6.877,49.372 -15.483,100.65 -25.8,153.833 -17.21,79.767 -43.888,166.173 -80.02,259.232 -36.147,93.059 -79.172,179.464 -129.075,259.231 -49.904,79.768 -104.972,147.195 -165.208,202.268 -60.22,55.073 -123.045,84.516 -188.431,88.311 l 5.165,119.644 542.072,0 c 48.191,0 94.655,-4.749 139.392,-14.245 44.752,-9.497 90.353,-29.427 136.816,-59.821 46.464,-30.38 96.367,-72.161 149.709,-125.345 53.358,-53.167 112.729,-123.438 178.115,-210.812 l 108.412,330.455 m -1920.51,-68.366 c 99.82,0 188.447,-47.481 265.877,-142.43 77.445,-94.964 140.256,-250.704 188.447,-467.201 27.526,-140.541 17.21,-246.892 -30.981,-319.069 -48.177,-72.16 -118.744,-108.241 -211.672,-108.241 -106.684,0 -217.686,50.326 -332.99,150.975 -115.304,100.666 -228.018,263.043 -338.157,487.147 -17.21,91.154 -26.663,163.33 -28.39,216.498 -1.726,53.183 12.908,93.059 43.889,119.658 30.966,26.584 81.732,43.67 152.3,51.278 70.552,7.59 167.782,11.386 291.677,11.386 z"
         class="fil8" /></g></g></svg>